<svg id="Layer_1" data-name="Layer 1" xmlns="http://www.w3.org/2000/svg" width="51.38mm" height="57.44mm" viewBox="0 0 145.65 162.82">
  <defs>
    <style>
      .cls-1, .cls-5 {
        fill: #fff;
      }

      .cls-1 {
        stroke: #0a0aef;
        stroke-miterlimit: 10;
        stroke-width: 7px;
      }

      .cls-2 {
        fill: #f910f3;
      }

      .cls-3 {
        fill: #0a0aef;
      }

      .cls-4 {
        opacity: 0.7;
      }
    </style>
  </defs>
  <g>
    <circle class="cls-1" cx="72.82" cy="72.82" r="69.32"/>
    <path class="cls-2" d="M41.5,72.4C53.83,72.13,64.29,63.16,69,52.15c2.22-5.22,4.27-13.13-.87-17.41-4.86-4-12-1.1-15,3.8-3.9,6.38-1.17,14.68,0,21.43a203.66,203.66,0,0,1,2.73,23A194.46,194.46,0,0,1,56,106.46c-.15,2.68-.47,5.57-1.93,7.89s-4.22,3.07-6.83,2.7c-4.71-.68-10-5.58-6.71-10.37,1.39-2,3.72-2.06,5.88-1.14,3.22,1.37,5.91,3.81,9,5.36A84.54,84.54,0,0,0,65.86,115,92.52,92.52,0,0,0,77,118.2c6.8,1.4,15.12,1.74,21.12-2.38,3.18-2.19,4.67-5.61,6.19-9a103,103,0,0,0,4-10.18A106.16,106.16,0,0,0,112.92,75,101.66,101.66,0,0,0,113,53.18c-.35-3.38-1-7.37-4.86-8.42a4.84,4.84,0,0,0-4.7,1.11c-1.45,1.45-1.53,3.48-1.45,5.4,1.33,32.39,2.78,64.78,4.18,97.17l.51,12c.14,3.2,5,3.24,5,0,.27-18.73.48-37.6-2.94-56.1-.75-4-1.41-8.33-3.35-12-1.66-3.12-4.74-5.62-8.43-5.33-3.37.27-6.7,2.43-6.94,6.06-.3,4.4,4.15,7.23,8.11,7.18,4.59,0,9.48-2.4,13.35-4.71a40.26,40.26,0,0,0,10.25-8.77,2.57,2.57,0,0,0,0-3.53,2.52,2.52,0,0,0-3.54,0,35.58,35.58,0,0,1-16,11.1c-1.94.65-6.23,2-7.23-.73a.77.77,0,0,1,.16-.72c-.19.25.2-.21.28-.27-.18.15.36-.23.48-.29a3.91,3.91,0,0,1,2.34-.25c2.18.59,3.36,3.74,4,5.92a98.46,98.46,0,0,1,2.32,11.43,192.54,192.54,0,0,1,2.07,23.73c.31,9.08.18,18.17,0,27.25h5l-4-94.18-.49-11.47C107,53,107,51.3,107,49.57c0-.52.11-.1,0-.16l-.34.17c-.17,0-.1,0,.23,0a3.27,3.27,0,0,1,.57.64,13.38,13.38,0,0,1,.71,4.31c.16,1.78.28,3.56.34,5.35a100.72,100.72,0,0,1-.15,10.71A99.78,99.78,0,0,1,104.77,91a99.19,99.19,0,0,1-3.35,9.94q-.92,2.31-2,4.54A23.64,23.64,0,0,1,97,110.16c-1.87,2.43-5.38,3.36-8.26,3.77a29.92,29.92,0,0,1-9.94-.46,83.67,83.67,0,0,1-10.75-3,87.47,87.47,0,0,1-9.68-3.66c-5.47-2.63-11.25-8.9-17.87-6.25-5.81,2.33-7.53,9.88-4.34,15,3.31,5.29,10.77,8.1,16.7,5.87,6.22-2.34,7.77-8.95,8.11-14.92a207.08,207.08,0,0,0-2.72-45.91c-.59-3.5-1.43-7-1.9-10.5-.39-2.91-.56-6.38,1-9a7.19,7.19,0,0,1,4.78-3.23,3.17,3.17,0,0,1,2.52.56,4.38,4.38,0,0,1,1.5,2.76c.42,2.47-.34,5.07-1.15,7.38a31.22,31.22,0,0,1-3.86,7.4,27.62,27.62,0,0,1-12.12,9.92A21.57,21.57,0,0,1,41.5,67.4c-3.21.07-3.22,5.08,0,5Z"/>
    <path class="cls-3" d="M39.22,67.88a2.34,2.34,0,0,0-.37,2.42l.15.38a.93.93,0,0,1,0,.1c0-.11,0,0,0,0a1.68,1.68,0,0,1,.07.24c0-.12,0,0,0,0s0,0,0,0l0,.09s.09-.14,0,0l0,0,.06,0c-.06,0-.05,0,0,0s.15,0,0,0c.14,0,.07,0,0,0,.17.07,0,0,0,0s.1.1,0,0,0,.11,0,0-.07-.15,0-.06,0-.07,0-.07a1.89,1.89,0,0,1-.05-.23l-.06-.26c0-.19,0,.07,0,0s0-.12,0-.18v-.15c0-.12,0,0,0,0a1.43,1.43,0,0,1,.09-.27,2.25,2.25,0,0,0,.15-.62A1,1,0,0,0,38.47,68a1.19,1.19,0,0,0-1.18.66A2.29,2.29,0,0,0,37,70a4.29,4.29,0,0,0,.16.71l0,.14s0,.19,0,.06a.37.37,0,0,0,0,.11c0,.08,0,.08,0,0a.52.52,0,0,1,.29-.27h.33s.18.13.1.05.05.11,0,0-.1-.15,0,0a.36.36,0,0,1,0-.11.65.65,0,0,1,0-.13c0-.09,0-.07,0,0a1.62,1.62,0,0,1,0-.31c0-.5,0-1.23-.54-1.51a.79.79,0,0,0-1,.19,1.43,1.43,0,0,0-.32.76,2.55,2.55,0,0,0,.25,1.51.63.63,0,0,0,1.08-.63l0-.07c0-.08,0,.09,0,0a.88.88,0,0,1,0-.15s0-.2,0-.07a1.21,1.21,0,0,1,0-.19v-.18c0,.11,0,0,0-.05a1.21,1.21,0,0,1,.05-.18c0-.07,0,0,0,0-.13.24-.81.16-.76-.06v0l0,0s0,.06,0,.08,0,.21,0,.09c0,.13,0,.26,0,.4a3.4,3.4,0,0,0,.1.78,1.62,1.62,0,0,0,.43.72.86.86,0,0,0,.58.26.79.79,0,0,0,.64-.36,1.41,1.41,0,0,0,.1-1c0-.12-.06-.24-.1-.37s0-.13-.05-.19,0-.21,0-.09a2.67,2.67,0,0,1,0-.4c0,.11,0,0,0-.06a1.66,1.66,0,0,1,.06-.21c0-.11-.05.06,0,0a.41.41,0,0,1,.05-.09s-.08.08,0,0l.06,0,0,0c.07,0-.11,0,0,0s-.07,0-.09,0h0a.24.24,0,0,1-.13-.07s-.09-.17-.07-.07,0-.13,0,0,0-.11,0,0l-.06.18a2.45,2.45,0,0,0-.19.89A4,4,0,0,0,38,71a2.12,2.12,0,0,0,.38.82,1.11,1.11,0,0,0,1.73,0,1.25,1.25,0,0,0,.25-1,1.63,1.63,0,0,0-.13-.48l-.12-.27s0,.1,0,0,0-.07,0-.11a3.17,3.17,0,0,1-.12-.44s0,0,0-.08,0,0,0,0v-.19h0a.36.36,0,0,1,0-.1,1.46,1.46,0,0,1,.05-.2s0,.09,0,0l.05-.09a.41.41,0,0,0,0-.09c.05-.07-.09.11,0,0a.64.64,0,0,0,0-.88.63.63,0,0,0-.88,0Z"/>
    <g class="cls-4">
      <path class="cls-5" d="M61.46,35a7,7,0,0,1,7.35,3.26c.38.71,1.46.08,1.08-.63-1.7-3.16-5.37-4.34-8.76-3.84a.63.63,0,0,0-.44.77.64.64,0,0,0,.77.44Z"/>
    </g>
    <g class="cls-4">
      <path class="cls-5" d="M39.7,101.54a7.59,7.59,0,0,0-3.55,3.95,8.46,8.46,0,0,0-.68,5.74.63.63,0,0,0,1.21-.34,7,7,0,0,1,.62-4.9,6.45,6.45,0,0,1,3-3.37.63.63,0,0,0-.63-1.08Z"/>
    </g>
    <g class="cls-4">
      <path class="cls-5" d="M96.19,87.75a6.91,6.91,0,0,0-5.32,6.34c0,.81,1.22.81,1.25,0A5.67,5.67,0,0,1,96.53,89a.62.62,0,1,0-.34-1.2Z"/>
    </g>
    <g class="cls-4">
      <path class="cls-5" d="M106.09,46.67a3.55,3.55,0,0,1,3.28,1.46,7.1,7.1,0,0,1,1.25,4c0,.8,1.29.8,1.25,0a8.26,8.26,0,0,0-1.68-5,4.73,4.73,0,0,0-4.43-1.7.64.64,0,0,0-.44.77.65.65,0,0,0,.77.43Z"/>
    </g>
  </g>
</svg>
