<svg id="Layer_1" data-name="Layer 1" xmlns="http://www.w3.org/2000/svg" width="37.19mm" height="52.05mm" viewBox="0 0 105.43 147.54">
  <defs>
    <style>
      .cls-1 {
        fill: #1414f4;
      }

      .cls-2 {
        fill: #f910f3;
      }

      .cls-3 {
        opacity: 0.61;
      }

      .cls-4 {
        fill: #f2b1f2;
      }

      .cls-5 {
        opacity: 0.7;
      }

      .cls-6 {
        fill: #fff;
      }
    </style>
  </defs>
  <g>
    <path d="M15.75,57a33,33,0,0,0,11.38-2.11,44.52,44.52,0,0,0,6.46-3,49.21,49.21,0,0,0,5.76-4.19c6.09-5,10.31-11.89,13-19.16a26.64,26.64,0,0,0,1.26-4.46,25.88,25.88,0,0,0,.58-7.07c-.33-3.22-.93-6.37-2.78-9.13A18.1,18.1,0,0,0,42.29.79,15.82,15.82,0,0,0,34.63.21,19.39,19.39,0,0,0,27.1,2.75a21.17,21.17,0,0,0-9.59,12.7C16,21.32,16.82,27.23,18,33.07c.88,4.57,1.68,9.14,2.31,13.75l-.41-3a213.59,213.59,0,0,1,1.77,21.3c.22,6.62.44,13.48-.4,20.07l.4-3A19.29,19.29,0,0,1,20.39,87l1.14-2.69a12.38,12.38,0,0,1-1.37,2.33l1.76-2.28a9.8,9.8,0,0,1-1.45,1.43L22.75,84a10.21,10.21,0,0,1-1.62,1l2.68-1.14a10.23,10.23,0,0,1-2.6.71l3-.4a13.66,13.66,0,0,1-3.13,0l3,.4a14.59,14.59,0,0,1-3.24-.91l2.69,1.14a13.53,13.53,0,0,1-2.84-1.68L23,84.84a12.12,12.12,0,0,1-1.8-1.78l1.76,2.28a10.73,10.73,0,0,1-1.29-2.16l1.13,2.69a9,9,0,0,1-.56-2l.4,3a9.07,9.07,0,0,1,0-2.27l-.4,3a9.72,9.72,0,0,1,.63-2.18L21.7,88.11a9.2,9.2,0,0,1,1-1.65l-1.75,2.28A7.76,7.76,0,0,1,22,87.62l-2.28,1.75a8,8,0,0,1,1.34-.82l-2.68,1.14a7.26,7.26,0,0,1,1.67-.47l-3,.4a8.44,8.44,0,0,1,1.88,0l-3-.4a11.59,11.59,0,0,1,2.57.73l-2.69-1.13c3.41,1.5,6.27,4,9.62,5.62a112.13,112.13,0,0,0,13.39,5.22,76.74,76.74,0,0,0,11.89,3.2,45.89,45.89,0,0,0,16.77.06,31.81,31.81,0,0,0,7.58-2.68,18.36,18.36,0,0,0,6-4.63c3.58-4.27,5.59-9.57,7.65-14.7a102.77,102.77,0,0,0,6.17-22.58A114.87,114.87,0,0,0,96.27,32.4c-.19-2.74-.49-5.49-.92-8.21a15.18,15.18,0,0,0-5.7-9.4c-3.51-2.71-8.4-4-12.72-2.47a13.88,13.88,0,0,0-7.45,5.8,15.37,15.37,0,0,0-2,7.4c-.1,2,.13,4.09.21,6.11l.28,6.48.57,13.21,1.13,26.16,2.25,52.33.28,6.48a11.75,11.75,0,0,0,3.29,8,11.25,11.25,0,0,0,19.21-8c.28-19.55.31-39.13-3.26-58.43-.9-4.84-1.89-9.68-4.23-14.06a20.16,20.16,0,0,0-6.89-7.32,15.85,15.85,0,0,0-9.1-2.34,17.42,17.42,0,0,0-9.89,3.58,14.65,14.65,0,0,0-5.8,11.22,15.09,15.09,0,0,0,4.8,11.28,17.47,17.47,0,0,0,12.06,4.65,27.15,27.15,0,0,0,9.48-2A55.85,55.85,0,0,0,90.12,79a47.19,47.19,0,0,0,12-10.14c2-2.35,3.29-4.79,3.29-7.95a11.45,11.45,0,0,0-3.29-8,11.32,11.32,0,0,0-8-3.29c-2.82.12-6.07,1-8,3.29a39.25,39.25,0,0,1-6.07,5.88L82.43,57a39.31,39.31,0,0,1-8.34,4.87l2.69-1.14a27.4,27.4,0,0,1-6.07,1.89l3-.4a10.1,10.1,0,0,1-2.69,0l3,.4a8.17,8.17,0,0,1-1.44-.42l2.69,1.13a7,7,0,0,1-1.2-.73l2.28,1.76a7.2,7.2,0,0,1-.74-.72L77.35,66a5.26,5.26,0,0,1-.68-1.17l1.13,2.69a3.69,3.69,0,0,1-.18-.65l.41,3a4.43,4.43,0,0,1,0-.89l-.4,3a4.25,4.25,0,0,1,.26-1l-1.14,2.68A5.32,5.32,0,0,1,77.1,73l-1.76,2.28a4.59,4.59,0,0,1,.72-.74l-2.27,1.76A5.64,5.64,0,0,1,75,75.58l-2.69,1.13a7.57,7.57,0,0,1,1.63-.45l-3,.41a6.91,6.91,0,0,1,1.7,0l-3-.4a6.73,6.73,0,0,1,1.09.29L68,75.44a6.35,6.35,0,0,1,1.33.78l-2.27-1.76a9.35,9.35,0,0,1,1.47,1.48l-1.76-2.27a13.38,13.38,0,0,1,1.56,2.79l-1.13-2.69a46.23,46.23,0,0,1,2.07,8c.63,3.14,1.15,6.3,1.58,9.47l-.4-3c2.12,15.94,1.91,32,1.69,48.09h22.5L90.9,49.08l-.51-12-.26-6a46.15,46.15,0,0,1-.16-6l-.4,3a4.58,4.58,0,0,1,.29-1l-1.13,2.68.18-.3-1.76,2.28a2,2,0,0,1,.47-.48L85.34,33l.26-.16L82.91,34a2.31,2.31,0,0,1,.56-.19l-3,.4a4,4,0,0,1,.92,0l-3-.41A4.11,4.11,0,0,1,79,34l-2.68-1.13a5.69,5.69,0,0,1,.83.47l-2.28-1.76a3.19,3.19,0,0,1,.46.44l-1.76-2.28a5.82,5.82,0,0,1,.62,1l-1.13-2.69a11,11,0,0,1,.67,2.71l-.41-3a102.4,102.4,0,0,1-.18,25.35l.4-3a103.94,103.94,0,0,1-7.26,26.65l1.14-2.69a38.38,38.38,0,0,1-4,7.88L65.2,79.7a10.26,10.26,0,0,1-1.7,1.66l2.27-1.76A14.35,14.35,0,0,1,63,81.13L65.72,80a23.24,23.24,0,0,1-5.5,1.45l3-.4a32.29,32.29,0,0,1-8.1-.07l3,.4a65.57,65.57,0,0,1-11-2.68c-3.57-1.14-7.15-2.34-10.62-3.77l2.69,1.13A39.49,39.49,0,0,1,33,72.82a44.31,44.31,0,0,0-5.24-3.18c-3.32-1.57-6.9-2.9-10.66-2.52a19.6,19.6,0,0,0-7.35,2,16.31,16.31,0,0,0-4.09,3A19.35,19.35,0,0,0,.75,91a21.29,21.29,0,0,0,5.33,8.91,25,25,0,0,0,9.1,5.55,20.5,20.5,0,0,0,8.24,1.28,20.59,20.59,0,0,0,10.41-3.08,22,22,0,0,0,9.41-14.93c1.55-10,1.2-20.52.54-30.64-.42-6.34-1.17-12.65-2.06-18.94-.76-5.35-2-10.63-2.74-16l.4,3a23.56,23.56,0,0,1-.1-6.05l-.41,3a15.2,15.2,0,0,1,.89-3.3l-1.14,2.69a9.86,9.86,0,0,1,1.12-1.91L38,22.86a11.19,11.19,0,0,1,1.83-1.81l-2.28,1.76a10.94,10.94,0,0,1,2.2-1.27L37,22.67a9.9,9.9,0,0,1,2.07-.56l-3,.4a7.49,7.49,0,0,1,1.77,0l-3-.41a7.52,7.52,0,0,1,1.41.38l-2.69-1.13a6.36,6.36,0,0,1,1.28.76l-2.27-1.76a7.67,7.67,0,0,1,.94.95L31.81,19a7.88,7.88,0,0,1,.84,1.43l-1.13-2.69a9.52,9.52,0,0,1,.59,2.29l-.4-3a14.79,14.79,0,0,1,0,3.19l.4-3a27,27,0,0,1-1.86,6.52l1.13-2.69a34.93,34.93,0,0,1-4.53,7.77l1.76-2.27a34,34,0,0,1-5.83,5.8L25,30.63A29,29,0,0,1,19,34.17L21.64,33a25,25,0,0,1-6.06,1.68l3-.4a24.34,24.34,0,0,1-2.82.22,11.71,11.71,0,0,0-8,3.29,11.43,11.43,0,0,0-3.29,8c.27,6,4.94,11.39,11.25,11.25Z"/>
    <path class="cls-1" d="M15.75,55.79A32.11,32.11,0,0,0,26.8,53.73,43.11,43.11,0,0,0,33,50.86a46.87,46.87,0,0,0,5.51-4c5.92-4.8,10.06-11.52,12.69-18.61a25.4,25.4,0,0,0,1.27-4.45A24.67,24.67,0,0,0,53,17.06a18.26,18.26,0,0,0-2.6-8.5A16.8,16.8,0,0,0,42,2a14.79,14.79,0,0,0-7.17-.55,18.32,18.32,0,0,0-7.06,2.39,19.91,19.91,0,0,0-9,12c-1.5,5.64-.65,11.34.43,17,.89,4.56,1.69,9.14,2.31,13.75l-.36-2.66a213.59,213.59,0,0,1,1.77,21.3c.22,6.62.44,13.48-.4,20.07l.35-2.65a19.75,19.75,0,0,1-1.22,4.78l1-2.39a12.38,12.38,0,0,1-1.37,2.33l1.56-2a9.27,9.27,0,0,1-1.44,1.43l2-1.56a9.78,9.78,0,0,1-1.62,1l2.39-1a11.21,11.21,0,0,1-2.61.71l2.66-.36a13.66,13.66,0,0,1-3.13,0l2.66.36a14.59,14.59,0,0,1-3.24-.91l2.39,1A13.53,13.53,0,0,1,20,84.16l2,1.57a13.84,13.84,0,0,1-1.8-1.79l1.57,2a10.73,10.73,0,0,1-1.29-2.16l1,2.39a9.48,9.48,0,0,1-.57-2l.36,2.66a9.07,9.07,0,0,1,0-2.27L21,87.28a9.83,9.83,0,0,1,.64-2.19l-1,2.39a8.91,8.91,0,0,1,1-1.65l-1.57,2a8.47,8.47,0,0,1,1.11-1.13l-2,1.57a7.46,7.46,0,0,1,1.34-.83l-2.39,1A8.14,8.14,0,0,1,19.74,88l-2.65.36a8.44,8.44,0,0,1,1.88,0L16.31,88a11.46,11.46,0,0,1,2.57.74l-2.39-1c3.41,1.5,6.27,4,9.62,5.62a109.45,109.45,0,0,0,13.09,5.1,77.88,77.88,0,0,0,11.89,3.2,44.28,44.28,0,0,0,16.11.06c4.75-.92,9.88-3.22,13-7,3.42-4.1,5.35-9.25,7.32-14.15A102.77,102.77,0,0,0,93.72,58,113.72,113.72,0,0,0,95,32.4c-.44-6.12-.86-12.56-6.12-16.62a12.61,12.61,0,0,0-11.64-2.25C71.93,15.4,69,20,68.69,25.52c-.11,2,.13,4.09.21,6.11l.28,6.48.57,13.21,1.13,26.16,2.25,52.33.28,6.48a10.48,10.48,0,0,0,2.92,7.07,10,10,0,0,0,17.08-7.07c.27-19.44.34-38.91-3.22-58.1-.87-4.72-1.82-9.48-4.1-13.76-2.85-5.34-8.69-9.46-14.91-9a16,16,0,0,0-9.13,3.31,13.44,13.44,0,0,0-5.31,10.24c-.37,8.48,7.62,14.78,15.61,14.68a26,26,0,0,0,9.15-2,53.35,53.35,0,0,0,8-3.75A46.23,46.23,0,0,0,101.26,68a10.76,10.76,0,0,0,2.92-7.07,10,10,0,0,0-10-10c-2.5.11-5.4.92-7.07,2.93A38.81,38.81,0,0,1,81,59.69l2-1.57A39.49,39.49,0,0,1,74.73,63l2.38-1a28,28,0,0,1-6.06,1.89l2.65-.36a10.1,10.1,0,0,1-2.69,0l2.66.36a7.23,7.23,0,0,1-1.44-.43l2.39,1a7,7,0,0,1-1.2-.73l2,1.57a6.47,6.47,0,0,1-.75-.73l1.57,2a5.42,5.42,0,0,1-.68-1.16l1,2.38a4.77,4.77,0,0,1-.17-.65l.36,2.66a4.43,4.43,0,0,1,0-.89l-.36,2.66a4.33,4.33,0,0,1,.26-1l-1,2.39a4.24,4.24,0,0,1,.38-.65l-1.56,2a5.59,5.59,0,0,1,.72-.74l-2,1.57a5.64,5.64,0,0,1,1.16-.69l-2.39,1a7,7,0,0,1,1.63-.45l-2.66.36a6.91,6.91,0,0,1,1.7,0L70,75.07a7.05,7.05,0,0,1,1.09.3l-2.39-1a6.42,6.42,0,0,1,1.34.78l-2-1.57a9.42,9.42,0,0,1,1.47,1.49l-1.56-2a13.45,13.45,0,0,1,1.56,2.8l-1-2.39a46,46,0,0,1,2.08,8c.63,3.14,1.15,6.29,1.58,9.47l-.36-2.66c2.12,15.94,1.91,32,1.69,48.09h20L89.65,49.08l-.51-12-.26-6a46.15,46.15,0,0,1-.16-6l-.36,2.66a4.84,4.84,0,0,1,.3-1l-1,2.39.18-.3-1.56,2a2.05,2.05,0,0,1,.46-.47l-2,1.56L85,31.8l-2.39,1a1.84,1.84,0,0,1,.56-.18L80.48,33a4,4,0,0,1,.92,0l-2.66-.36a3.25,3.25,0,0,1,.61.17l-2.39-1a5.21,5.21,0,0,1,.83.47l-2-1.56a3.73,3.73,0,0,1,.45.44l-1.56-2a7.93,7.93,0,0,1,.62,1l-1-2.38a10.55,10.55,0,0,1,.67,2.71l-.36-2.66a102.4,102.4,0,0,1-.18,25.35l.35-2.66A104.33,104.33,0,0,1,67.5,77.12l1-2.39a38.38,38.38,0,0,1-4,7.88l1.57-2a11.19,11.19,0,0,1-1.71,1.66l2-1.57a14,14,0,0,1-2.73,1.53l2.39-1a23.37,23.37,0,0,1-5.5,1.45l2.65-.36a32.29,32.29,0,0,1-8.1-.07l2.66.35a65.55,65.55,0,0,1-11-2.67c-3.57-1.15-7.16-2.34-10.62-3.78l2.39,1a39.49,39.49,0,0,1-6.14-3.23,45.76,45.76,0,0,0-5.24-3.19c-3.13-1.47-6.5-2.7-10-2.34A17,17,0,0,0,6.53,73,18.11,18.11,0,0,0,2,90.67,20,20,0,0,0,7,99a23.42,23.42,0,0,0,8.54,5.23c5.49,2.11,12.76,1.68,17.69-1.66A20.84,20.84,0,0,0,42,88.4,104.32,104.32,0,0,0,43,72.9q0-7.41-.45-14.81c-.41-6.23-1.14-12.42-2-18.6-.76-5.36-2-10.63-2.74-16l.36,2.66a23.56,23.56,0,0,1-.1-6.05l-.36,2.66a15,15,0,0,1,.88-3.3l-1,2.39A10.39,10.39,0,0,1,38.66,20L37.1,22a10.69,10.69,0,0,1,1.82-1.8l-2,1.56a10.94,10.94,0,0,1,2.2-1.27l-2.39,1a9.35,9.35,0,0,1,2.07-.57l-2.66.36a7.49,7.49,0,0,1,1.77,0l-2.65-.36a6.91,6.91,0,0,1,1.4.38l-2.39-1a6.86,6.86,0,0,1,1.28.76l-2-1.56a7.59,7.59,0,0,1,.94.94l-1.56-2a7.88,7.88,0,0,1,.84,1.43l-1-2.39a9.54,9.54,0,0,1,.6,2.29L33,17.06a14.79,14.79,0,0,1,0,3.19l.36-2.66a27,27,0,0,1-1.87,6.52l1-2.39a34.93,34.93,0,0,1-4.53,7.77l1.56-2a33.63,33.63,0,0,1-5.82,5.8l2-1.56a29,29,0,0,1-6.07,3.54l2.39-1a26,26,0,0,1-6,1.68l2.65-.36a24.34,24.34,0,0,1-2.82.22,10.38,10.38,0,0,0-7.07,2.93,10.14,10.14,0,0,0-2.93,7.07c.24,5.32,4.39,10.12,10,10Z"/>
    <path class="cls-2" d="M15.75,49.31C28.08,49,38.53,40.07,43.22,29.05c2.21-5.22,4.26-13.12-.87-17.4-4.86-4-12-1.1-15,3.8-3.91,6.37-1.17,14.68,0,21.43a208.09,208.09,0,0,1,2.73,23,198.63,198.63,0,0,1,.15,23.53c-.16,2.68-.47,5.56-1.93,7.88s-4.22,3.08-6.84,2.7c-4.71-.68-10-5.57-6.7-10.36,1.39-2,3.72-2.06,5.87-1.14,3.23,1.37,5.92,3.81,9.06,5.36A86,86,0,0,0,40.1,91.88a92.52,92.52,0,0,0,11.17,3.23c6.8,1.4,15.12,1.74,21.13-2.38,3.17-2.19,4.67-5.62,6.19-9a108.18,108.18,0,0,0,4-10.18,106.83,106.83,0,0,0,4.63-21.58,101.66,101.66,0,0,0,.06-21.85c-.36-3.38-1-7.37-4.86-8.42a4.86,4.86,0,0,0-4.71,1.11c-1.45,1.44-1.53,3.48-1.45,5.39C77.54,60.57,79,93,80.39,125.35l.52,12c.13,3.2,5,3.23,5,0,.26-18.73.48-37.6-3-56.1-.74-4-1.4-8.33-3.35-12-1.66-3.12-4.73-5.62-8.43-5.33-3.37.27-6.7,2.43-6.94,6-.29,4.41,4.16,7.23,8.11,7.19,4.59-.06,9.49-2.4,13.36-4.72A40,40,0,0,0,96,63.67a2.57,2.57,0,0,0,0-3.54,2.52,2.52,0,0,0-3.53,0,35.48,35.48,0,0,1-16,11.1c-2,.66-6.23,2-7.24-.72a.78.78,0,0,1,.17-.72c-.19.25.2-.21.28-.28-.19.16.36-.22.48-.29A3.94,3.94,0,0,1,72.49,69c2.18.59,3.37,3.73,4,5.92a103.12,103.12,0,0,1,2.32,11.42,192.7,192.7,0,0,1,2.07,23.74c.3,9.08.18,18.17,0,27.25h5L81.85,43.12l-.49-11.46c-.07-1.73-.17-3.46-.17-5.19,0-.51.11-.09,0-.15l-.34.17c-.18,0-.1,0,.23,0a4.89,4.89,0,0,1,.57.65,13,13,0,0,1,.7,4.3c.16,1.78.28,3.57.35,5.35a100.91,100.91,0,0,1-.15,10.72A99.78,99.78,0,0,1,79,67.92a101.86,101.86,0,0,1-3.36,9.94q-.9,2.3-1.94,4.54a24.48,24.48,0,0,1-2.46,4.67c-1.87,2.43-5.38,3.36-8.27,3.77a29.85,29.85,0,0,1-9.93-.46,83.26,83.26,0,0,1-10.75-3,83.11,83.11,0,0,1-9.69-3.66c-5.47-2.62-11.25-8.89-17.87-6.24-5.8,2.33-7.53,9.88-4.34,15,3.32,5.29,10.78,8.1,16.7,5.87,6.22-2.34,7.77-9,8.12-14.92A207.08,207.08,0,0,0,32.5,37.46c-.59-3.5-1.43-7-1.9-10.5-.39-2.91-.55-6.38,1-9a7.23,7.23,0,0,1,4.78-3.22,3.19,3.19,0,0,1,2.53.56,4.32,4.32,0,0,1,1.49,2.76c.43,2.47-.33,5.07-1.15,7.38a31.42,31.42,0,0,1-3.86,7.4,27.51,27.51,0,0,1-12.11,9.91,21.9,21.9,0,0,1-7.57,1.55c-3.22.07-3.23,5.07,0,5Z"/>
    <g class="cls-3">
      <path class="cls-4" d="M15.75,48.06c11.89-.26,21.91-9,26.39-19.64,2-4.7,4-12-.67-15.88C37.24,9,31,11.92,28.41,16.08c-3.7,6-1,14.09.14,20.46a207.4,207.4,0,0,1,2.78,23.3,198.63,198.63,0,0,1,.15,23.53c-.17,2.89-.52,6-2.1,8.52-1.71,2.71-4.83,3.69-7.92,3.31C15.87,94.52,9.88,88.67,13.68,83c1.77-2.66,4.87-2.8,7.59-1.59,3.21,1.42,5.9,3.8,9.05,5.36a82.8,82.8,0,0,0,10.12,3.94A89.73,89.73,0,0,0,51.61,93.9c6.46,1.33,14.45,1.7,20.16-2.25,3-2.05,4.32-5.39,5.74-8.58a102.82,102.82,0,0,0,3.82-9.88,105,105,0,0,0,4.59-21.25A101.66,101.66,0,0,0,86,30.09c-.3-2.79-.76-6.33-3.94-7.22a3.63,3.63,0,0,0-3.5.79c-1.19,1.19-1.14,3-1.08,4.51,1.33,32.4,2.79,64.79,4.18,97.18l.52,12a1.25,1.25,0,0,0,2.5,0c.26-18.61.5-37.39-2.9-55.77-1.05-5.63-2.51-17-10.58-16.38-2.66.21-5.49,1.91-5.69,4.8-.26,3.73,3.57,6,6.86,5.94a20,20,0,0,0,6.82-1.67,39.83,39.83,0,0,0,5.91-2.88,39.19,39.19,0,0,0,10-8.56c1-1.23-.74-3-1.77-1.77A36.68,36.68,0,0,1,76.8,72.44a11.69,11.69,0,0,1-5.62.87c-1.41-.24-3-1.24-3.2-2.8-.26-2.38,3.08-3.2,4.85-2.73,2.85.76,4.14,4.25,4.85,6.78A101.46,101.46,0,0,1,80,86a196,196,0,0,1,2.12,24.07c.3,9.08.18,18.17,0,27.25h2.5L80.6,43.12l-.49-11.46-.13-3a9.32,9.32,0,0,1,0-2.53c.49-1.88,2.4-.48,2.87.65a16.08,16.08,0,0,1,.75,4.63c.16,1.78.28,3.57.35,5.35a100.91,100.91,0,0,1-.15,10.72,101.51,101.51,0,0,1-3.59,20.76,100.24,100.24,0,0,1-3.35,10q-1,2.44-2.07,4.83a27,27,0,0,1-2.46,4.67c-2,2.77-5.79,3.86-9,4.35a31.53,31.53,0,0,1-10.61-.46,85.84,85.84,0,0,1-10.75-3,89,89,0,0,1-10-3.79c-5.06-2.43-10.79-8.65-16.91-6.11-5,2.09-6.33,8.75-3.59,13.13,3,4.83,9.9,7.35,15.29,5.3C32.4,95,33.67,88.71,34,83.37a205.31,205.31,0,0,0-2.69-45.58c-.58-3.5-1.4-7-1.89-10.5-.46-3.24-.61-7,1.16-9.95a8.23,8.23,0,0,1,5.86-3.84c2.76-.29,4.74,1.61,5.23,4.24s-.26,5.52-1.15,8a32.55,32.55,0,0,1-4,7.7A28.91,28.91,0,0,1,23.65,44a23,23,0,0,1-7.9,1.59,1.25,1.25,0,0,0,0,2.5Z"/>
    </g>
    <path d="M13.46,44.79a2.35,2.35,0,0,0-.36,2.42c0,.13.1.25.15.37s0,.07,0,.11v0a.88.88,0,0,1,.07.23c0-.12,0,0,0,0s0,0,0-.05a.29.29,0,0,1,0,.09s.08-.14,0,0l0,0,.06,0c-.06,0,0,0,0,0s.14,0,0,0c.14,0,.08,0,0,0,.16.06,0,0,0,0s.09.11,0,0,0,.11,0,0-.06-.15,0-.06,0-.07,0-.07l-.06-.23c0-.09,0-.17,0-.26s0,.07,0-.05a1.09,1.09,0,0,1,0-.18v-.15h0a2.13,2.13,0,0,1,.08-.27,2,2,0,0,0,.16-.62,1,1,0,0,0-.89-1.06,1.19,1.19,0,0,0-1.18.65,2.39,2.39,0,0,0-.25,1.39,6,6,0,0,0,.15.71.57.57,0,0,1,0,.14s0,.19,0,.06v.11c0,.08,0,.08,0,0a.46.46,0,0,1,.29-.27h.34s.18.13.09.05,0,.1,0,0-.1-.15,0,0a.36.36,0,0,1,0-.11l0-.14c0-.08,0-.06,0,0a1.08,1.08,0,0,1,0-.31c0-.5,0-1.24-.54-1.51a.8.8,0,0,0-1,.19,1.36,1.36,0,0,0-.31.76,2.41,2.41,0,0,0,.25,1.51.62.62,0,0,0,.85.22.63.63,0,0,0,.23-.85.3.3,0,0,0,0-.08c0-.07,0,.1,0,0s0-.1,0-.16,0-.19,0-.06c0-.07,0-.13,0-.19s0-.12,0-.18c0,.1,0,0,0-.05a1.21,1.21,0,0,1,.05-.18v0c-.13.24-.82.16-.76-.06v0l0,.08s0,.21,0,.09c0,.13,0,.26,0,.4a2.86,2.86,0,0,0,.1.77,1.58,1.58,0,0,0,.42.73.94.94,0,0,0,.59.26.79.79,0,0,0,.64-.36,1.36,1.36,0,0,0,.09-1c0-.12-.06-.25-.09-.37l-.06-.2s0-.21,0-.09a1.7,1.7,0,0,1,0-.39.55.55,0,1,0,0-.06l.06-.21c0-.11,0,.06,0,0a.41.41,0,0,0,.05-.09s-.07.07,0,0,0,0,0-.05-.08.07,0,0-.1.05,0,0-.07,0-.09,0,0,0,0,0a.33.33,0,0,1-.13-.07s-.08-.17-.06-.07,0-.13,0-.06,0-.11,0,0,0,.12,0,.18a2.26,2.26,0,0,0-.19.89,3.91,3.91,0,0,0,.13.9,2,2,0,0,0,.37.82,1.12,1.12,0,0,0,1.74.06,1.25,1.25,0,0,0,.25-1,2,2,0,0,0-.13-.48L14.35,47s0,.11,0,0l0-.11a3.17,3.17,0,0,1-.12-.44s0-.06,0-.09,0,0,0,0a1.21,1.21,0,0,1,0-.19c0-.12,0,0,0,0s0-.07,0-.1l.06-.2s-.05.09,0,0l0-.09.06-.09c.05-.07-.09.11,0,0a.62.62,0,0,0-.88-.88Z"/>
    <g class="cls-5">
      <path class="cls-6" d="M35.7,11.91a7,7,0,0,1,7.35,3.27c.38.71,1.46.08,1.08-.63-1.69-3.16-5.37-4.34-8.76-3.84a.62.62,0,0,0,.33,1.2Z"/>
    </g>
    <g class="cls-5">
      <path class="cls-6" d="M13.94,78.44a7.63,7.63,0,0,0-3.54,4,8.32,8.32,0,0,0-.68,5.73.62.62,0,0,0,1.2-.33,7.16,7.16,0,0,1,.62-4.91,6.53,6.53,0,0,1,3-3.37.62.62,0,0,0,.23-.85.65.65,0,0,0-.86-.23Z"/>
    </g>
    <g class="cls-5">
      <path class="cls-6" d="M70.44,64.65A6.91,6.91,0,0,0,65.12,71c0,.81,1.21.8,1.25,0a5.66,5.66,0,0,1,4.4-5.14.63.63,0,0,0-.33-1.21Z"/>
    </g>
    <g class="cls-5">
      <path class="cls-6" d="M80.34,23.58A3.54,3.54,0,0,1,83.61,25a7.14,7.14,0,0,1,1.26,4.06c0,.8,1.29.8,1.25,0a8.32,8.32,0,0,0-1.68-5A4.74,4.74,0,0,0,80,22.38a.62.62,0,0,0-.43.76.64.64,0,0,0,.77.44Z"/>
    </g>
  </g>
</svg>
