<svg id="Layer_1" data-name="Layer 1" xmlns="http://www.w3.org/2000/svg" width="49.97mm" height="56.03mm" viewBox="0 0 141.65 158.82">
  <defs>
    <style>
      .cls-1, .cls-7 {
        fill: #fff;
      }

      .cls-1 {
        stroke: #0a0aef;
        stroke-miterlimit: 10;
        stroke-width: 3px;
      }

      .cls-2 {
        fill: #f910f3;
      }

      .cls-3 {
        opacity: 0.61;
      }

      .cls-4 {
        fill: #f2b1f2;
      }

      .cls-5 {
        fill: #0a0aef;
      }

      .cls-6 {
        opacity: 0.7;
      }
    </style>
  </defs>
  <g>
    <circle class="cls-1" cx="70.82" cy="70.82" r="69.32"/>
    <path class="cls-2" d="M41.12,68.41c12.34-.28,22.79-9.24,27.47-20.26,2.22-5.22,4.27-13.13-.86-17.4-4.86-4.05-12-1.11-15,3.79-3.9,6.38-1.17,14.69,0,21.43a206.15,206.15,0,0,1,2.72,23,194.28,194.28,0,0,1,.15,23.52c-.15,2.68-.46,5.57-1.93,7.89s-4.21,3.08-6.83,2.7c-4.71-.68-10-5.57-6.71-10.37,1.4-2,3.72-2.06,5.88-1.14,3.22,1.37,5.92,3.81,9.06,5.37A86,86,0,0,0,65.48,111a90.73,90.73,0,0,0,11.17,3.23c6.8,1.4,15.12,1.75,21.12-2.38,3.18-2.18,4.67-5.61,6.2-9a106.46,106.46,0,0,0,3.94-10.18A106.11,106.11,0,0,0,112.54,71a102.21,102.21,0,0,0,.07-21.84c-.36-3.38-1-7.38-4.87-8.43a4.87,4.87,0,0,0-4.7,1.11c-1.45,1.45-1.53,3.49-1.45,5.4,1.33,32.39,2.78,64.78,4.18,97.17l.51,12c.14,3.21,5,3.24,5,0,.27-18.73.48-37.6-2.94-56.09-.75-4-1.41-8.34-3.35-12-1.66-3.12-4.74-5.62-8.43-5.33-3.37.27-6.7,2.43-6.94,6.06-.3,4.4,4.16,7.23,8.11,7.18,4.59,0,9.49-2.4,13.35-4.71a39.89,39.89,0,0,0,10.25-8.77,2.56,2.56,0,0,0,0-3.53,2.52,2.52,0,0,0-3.54,0,35.58,35.58,0,0,1-16,11.1c-1.94.65-6.23,2-7.23-.72a.79.79,0,0,1,.17-.73c-.2.25.2-.21.27-.27-.18.15.37-.23.49-.29a3.79,3.79,0,0,1,2.33-.24c2.18.58,3.37,3.73,4,5.91a100.57,100.57,0,0,1,2.31,11.43,192.54,192.54,0,0,1,2.08,23.74c.3,9.08.17,18.16,0,27.24h5l-4-94.18-.49-11.46c-.08-1.73-.17-3.46-.17-5.19,0-.52.11-.1,0-.16l-.33.18c-.18,0-.1-.05.23,0a4.13,4.13,0,0,1,.56.64,13.38,13.38,0,0,1,.71,4.31c.16,1.78.28,3.56.35,5.35a106.26,106.26,0,0,1-.15,10.71A100.44,100.44,0,0,1,104.4,87,103.7,103.7,0,0,1,101,97q-.92,2.3-2,4.53a24.52,24.52,0,0,1-2.45,4.68c-1.88,2.42-5.39,3.36-8.27,3.77a30.2,30.2,0,0,1-9.94-.47,84.13,84.13,0,0,1-10.75-3A85.52,85.52,0,0,1,58,102.79c-5.47-2.63-11.25-8.9-17.87-6.24-5.81,2.33-7.53,9.88-4.34,15,3.31,5.29,10.78,8.11,16.7,5.88,6.22-2.34,7.77-9,8.11-14.93a206.35,206.35,0,0,0-2.72-45.9c-.59-3.51-1.43-7-1.9-10.51-.39-2.91-.56-6.37,1-9a7.2,7.2,0,0,1,4.78-3.22,3.18,3.18,0,0,1,2.53.55,4.36,4.36,0,0,1,1.49,2.76c.43,2.47-.34,5.07-1.15,7.38a31.22,31.22,0,0,1-3.86,7.4,27.62,27.62,0,0,1-12.12,9.92,21.81,21.81,0,0,1-7.57,1.55c-3.21.07-3.22,5.07,0,5Z"/>
    <g class="cls-3">
      <path class="cls-4" d="M41.12,67.16c11.9-.27,21.91-9,26.39-19.64,2-4.71,4-12-.67-15.89-4.23-3.5-10.51-.62-13.06,3.54-3.69,6-1,14.09.15,20.47a209.45,209.45,0,0,1,2.77,23.3,194.28,194.28,0,0,1,.15,23.52c-.16,2.9-.52,6-2.1,8.52a7.89,7.89,0,0,1-7.91,3.32c-5.6-.69-11.59-6.54-7.78-12.25,1.76-2.65,4.87-2.79,7.58-1.59,3.21,1.43,5.91,3.81,9.06,5.37a84.3,84.3,0,0,0,10.11,3.94A92.52,92.52,0,0,0,77,113c6.47,1.33,14.46,1.69,20.16-2.26,3-2,4.33-5.39,5.75-8.58a104.46,104.46,0,0,0,3.82-9.88A104.31,104.31,0,0,0,111.29,71a102.21,102.21,0,0,0,.07-21.84c-.3-2.8-.76-6.34-4-7.22a3.56,3.56,0,0,0-3.49.79c-1.2,1.19-1.15,3-1.08,4.51,1.33,32.39,2.78,64.78,4.18,97.17l.51,12a1.25,1.25,0,0,0,2.5,0c.27-18.61.51-37.38-2.9-55.76-1-5.64-2.5-17-10.57-16.39-2.66.21-5.49,1.91-5.69,4.81-.26,3.72,3.57,6,6.86,5.93a20,20,0,0,0,6.82-1.66,38.92,38.92,0,0,0,15.9-11.45c1-1.23-.74-3-1.77-1.77a36.73,36.73,0,0,1-16.5,11.42,11.73,11.73,0,0,1-5.63.87c-1.41-.24-3-1.24-3.19-2.79-.26-2.38,3.08-3.21,4.84-2.74,2.86.76,4.14,4.26,4.85,6.79a98.46,98.46,0,0,1,2.32,11.43,196,196,0,0,1,2.12,24.07c.3,9.08.17,18.16,0,27.24H110l-4-94.18-.49-11.46-.13-3a8.93,8.93,0,0,1,0-2.53c.48-1.89,2.4-.48,2.87.64a16.2,16.2,0,0,1,.75,4.64c.16,1.78.28,3.56.35,5.35a106.26,106.26,0,0,1-.15,10.71,101.6,101.6,0,0,1-3.59,20.77,104.54,104.54,0,0,1-3.35,9.94q-1,2.44-2.08,4.83a26.43,26.43,0,0,1-2.46,4.68c-2,2.76-5.78,3.85-9,4.34a31.22,31.22,0,0,1-10.6-.46,83.71,83.71,0,0,1-10.75-3,87,87,0,0,1-10-3.78c-5.06-2.43-10.79-8.66-16.91-6.12-5,2.1-6.34,8.76-3.59,13.13,3,4.84,9.9,7.35,15.29,5.3,5.61-2.13,6.88-8.37,7.19-13.72a205.18,205.18,0,0,0-2.68-45.57c-.59-3.51-1.4-7-1.9-10.5-.45-3.25-.61-7,1.17-10A8.2,8.2,0,0,1,61.8,32.6c2.76-.3,4.73,1.61,5.22,4.23s-.26,5.52-1.15,8.05a32.51,32.51,0,0,1-4,7.7A29,29,0,0,1,49,63.06a23,23,0,0,1-7.91,1.6,1.25,1.25,0,0,0,0,2.5Z"/>
    </g>
    <path class="cls-5" d="M38.84,63.88a2.32,2.32,0,0,0-.36,2.42,2.5,2.5,0,0,0,.15.38l0,.1c-.05-.11,0,0,0,0a2.17,2.17,0,0,1,.07.24c0-.12,0,0,0,0s0,0,0-.06,0,.06,0,.09.08-.14,0,0,0,0,0,0l.06-.05c-.06,0,0,0,0,0s.15,0,0,0c.14,0,.08,0,0,0,.16.06,0,0,0,0s.1.11,0,0,0,.11,0,0-.07-.16,0-.07,0-.07,0-.07a1.8,1.8,0,0,1-.06-.22,2.56,2.56,0,0,1-.05-.27c0-.19,0,.07,0,0s0-.12,0-.18a.76.76,0,0,1,0-.15c0-.13,0,0,0,0a1.43,1.43,0,0,1,.09-.27A1.66,1.66,0,0,0,39,65,1,1,0,0,0,38.09,64a1.2,1.2,0,0,0-1.18.66A2.32,2.32,0,0,0,36.65,66a5.88,5.88,0,0,0,.16.7.74.74,0,0,0,0,.14s0,.2,0,.06c0,0,0,.08,0,.12s0,.07,0,0a.5.5,0,0,1,.29-.28h.33s.18.14.1.06,0,.1,0,0-.1-.15,0,0a.49.49,0,0,1,0-.11l0-.14c0-.08,0-.07,0,0a1.62,1.62,0,0,1,0-.31c0-.5,0-1.23-.53-1.51a.8.8,0,0,0-1,.19,1.43,1.43,0,0,0-.32.76,2.46,2.46,0,0,0,.26,1.51.63.63,0,0,0,.85.23.65.65,0,0,0,.23-.86.25.25,0,0,1,0-.07c0-.08,0,.09,0,0a.88.88,0,0,0,0-.15s0-.2,0-.07a1.09,1.09,0,0,1,0-.18,1.15,1.15,0,0,1,0-.19c0,.11,0,0,0,0a1.21,1.21,0,0,1,0-.18c0-.08,0,0,0,0-.12.23-.81.16-.76-.07v0l0,.06a.19.19,0,0,1,0,.08s0,.2,0,.08c0,.13,0,.27,0,.4a3.4,3.4,0,0,0,.1.78,1.56,1.56,0,0,0,.43.72.87.87,0,0,0,.59.26.75.75,0,0,0,.63-.36,1.41,1.41,0,0,0,.1-1,2.42,2.42,0,0,0-.1-.36,1.17,1.17,0,0,0,0-.2s0-.21,0-.09a2.64,2.64,0,0,1,0-.4c0,.11,0,0,0,0a1.41,1.41,0,0,1,.06-.22c0-.11,0,.07,0,0a.22.22,0,0,1,0-.08s-.07.07,0,0a.12.12,0,0,1,0,0s-.09.07,0,0-.1,0,0,0-.07,0-.1,0,0,0,0,0l-.13-.07s-.09-.17-.06-.08,0-.12,0,0,0-.11,0,0a1.27,1.27,0,0,1-.06.18,2.78,2.78,0,0,0-.19.9,4.68,4.68,0,0,0,.14.9,1.91,1.91,0,0,0,.37.82,1.13,1.13,0,0,0,1.74.06,1.32,1.32,0,0,0,.25-1,1.83,1.83,0,0,0-.14-.47c0-.1-.08-.19-.11-.28s0,.1,0,0,0-.08,0-.12a3,3,0,0,1-.12-.43s0-.06,0-.09,0,0,0,0a1.34,1.34,0,0,1,0-.2c0-.11,0,0,0,0a.44.44,0,0,1,0-.1c0-.07,0-.13,0-.2s0,.09,0,0l0-.09.06-.08c0-.08-.1.1,0,0a.62.62,0,0,0-.88-.88Z"/>
    <g class="cls-6">
      <path class="cls-7" d="M61.08,31a7,7,0,0,1,7.35,3.27c.38.71,1.46.08,1.08-.63-1.7-3.17-5.37-4.35-8.76-3.85a.63.63,0,0,0-.44.77.65.65,0,0,0,.77.44Z"/>
    </g>
    <g class="cls-6">
      <path class="cls-7" d="M39.32,97.54a7.61,7.61,0,0,0-3.55,4,8.43,8.43,0,0,0-.68,5.73.63.63,0,0,0,1.21-.33,7,7,0,0,1,.62-4.91,6.45,6.45,0,0,1,3-3.37.63.63,0,0,0,.22-.86.64.64,0,0,0-.85-.22Z"/>
    </g>
    <g class="cls-6">
      <path class="cls-7" d="M95.82,83.75a6.91,6.91,0,0,0-5.33,6.35c0,.8,1.22.8,1.25,0A5.67,5.67,0,0,1,96.15,85a.62.62,0,0,0-.33-1.2Z"/>
    </g>
    <g class="cls-6">
      <path class="cls-7" d="M105.71,42.68A3.52,3.52,0,0,1,109,44.13a7.1,7.1,0,0,1,1.25,4c0,.8,1.29.81,1.25,0a8.34,8.34,0,0,0-1.67-5,4.76,4.76,0,0,0-4.44-1.7.64.64,0,0,0-.44.77.65.65,0,0,0,.77.44Z"/>
    </g>
  </g>
</svg>
