<svg id="Layer_1" data-name="Layer 1" xmlns="http://www.w3.org/2000/svg" width="53.91mm" height="41.04mm" viewBox="0 0 152.83 116.34">
  <defs>
    <style>
      .cls-1 {
        fill: #f910f3;
      }

      .cls-2 {
        fill: #0a0aef;
      }

      .cls-3 {
        opacity: 0.7;
      }

      .cls-4 {
        fill: #fff;
      }

      .cls-5 {
        fill: #1d1d1b;
      }
    </style>
  </defs>
  <g>
    <g>
      <path class="cls-1" d="M49.8,39.55A29.13,29.13,0,0,0,69.21,31c5.09-4.91,9.18-11.8,10.17-18.87.5-3.64,0-7.78-3-10.28s-6.73-2.35-10-.77a12.22,12.22,0,0,0-6.52,8.33c-1,4.38-.18,8.87.67,13.2a211.35,211.35,0,0,1,3.59,27.91q.43,7.15.38,14.33c0,4,.11,8.33-.66,12.33-.6,3.14-1.95,6.11-5.33,6.88a9.85,9.85,0,0,1-9.06-3A5.75,5.75,0,0,1,49,73.56c2.18-2.75,5.71-1,8.18.48,1.73,1.07,3.37,2.28,5.15,3.27a48.73,48.73,0,0,0,6.21,2.8c4.23,1.63,8.58,3.11,13,4.31,8.18,2.23,18.81,3.53,25.94-2.2a14.25,14.25,0,0,0,3.7-5,2.56,2.56,0,0,0-.89-3.42,2.52,2.52,0,0,0-3.42.9A9.55,9.55,0,0,1,103.43,79a16.31,16.31,0,0,1-5.5,2,30.66,30.66,0,0,1-12.64-.69,122.24,122.24,0,0,1-12.84-4,51.22,51.22,0,0,1-11.37-5.62c-3.36-2.21-7.22-4.33-11.38-3.25A9.64,9.64,0,0,0,43,74.89c-1.54,8.16,6.39,14.52,14,14.37a11.3,11.3,0,0,0,9.84-5.68c1.78-3.18,2.21-6.93,2.38-10.5A205.75,205.75,0,0,0,68.74,45q-.61-7.11-1.69-14.17c-.69-4.49-1.73-8.92-2.37-13.41C64.21,14.14,64,10,66.36,7.31a7.31,7.31,0,0,1,3.29-2.13,3.75,3.75,0,0,1,3.09.2c2.44,1.56,2,5.28,1.38,7.75A30.43,30.43,0,0,1,70,22.34c-3.6,5.46-9,9.93-15.45,11.57a21.13,21.13,0,0,1-4.74.64c-3.22.07-3.23,5.07,0,5Z"/>
      <path class="cls-2" d="M47.23,35a2.35,2.35,0,0,0-.36,2.42c0,.13.1.25.15.38a1,1,0,0,1,0,.1v0a1,1,0,0,1,.07.24c0-.13,0,0,0,0s0,0,0,0a.29.29,0,0,1,0,.09s.08-.14,0,0l0,0,.06,0c-.06,0,0,0,0,0s.14,0,0,0c.14,0,.08,0,0,0,.16.07,0,0,0,0s.09.1,0,0,.05.11,0,0-.06-.15,0-.06,0-.07,0-.07l-.06-.23c0-.08,0-.17-.05-.26s0,.07,0,0,0-.12,0-.18V37h0a2.76,2.76,0,0,1,.08-.27,2,2,0,0,0,.16-.62,1,1,0,0,0-.89-1.06,1.19,1.19,0,0,0-1.18.66,2.34,2.34,0,0,0-.25,1.38,6,6,0,0,0,.15.71.57.57,0,0,1,0,.14s0,.19,0,.06v.11c0,.08,0,.08,0,0a.52.52,0,0,1,.29-.27h.34s.18.13.09,0,0,.11,0,0-.1-.15,0,0a.36.36,0,0,1,0-.11l0-.13c0-.09,0-.07,0,0a1.08,1.08,0,0,1,0-.31c0-.5,0-1.24-.54-1.51a.8.8,0,0,0-1,.19,1.47,1.47,0,0,0-.31.76,2.4,2.4,0,0,0,.25,1.51.62.62,0,0,0,.85.22.63.63,0,0,0,.23-.85.16.16,0,0,0,0-.07c0-.08,0,.09,0,0s0-.1,0-.15,0-.2,0-.07c0-.06,0-.13,0-.19s0-.12,0-.18c0,.11,0,0,0,0a1.21,1.21,0,0,1,0-.18c0-.07,0,0,0,0-.13.24-.82.16-.76-.06v0l0,.08s0,.21,0,.09c0,.13,0,.26,0,.4a2.93,2.93,0,0,0,.1.78,1.69,1.69,0,0,0,.42.72.89.89,0,0,0,.59.26.79.79,0,0,0,.64-.36,1.36,1.36,0,0,0,.09-1c0-.12-.06-.24-.09-.37a1.17,1.17,0,0,1,0-.2s0-.2,0-.08a1.78,1.78,0,0,1,0-.4.55.55,0,1,0,0-.06,1.72,1.72,0,0,1,.07-.21c0-.11,0,.06,0,0a.41.41,0,0,0,0-.09s-.07.08,0,0l.05-.06,0,0c.07,0-.1,0,0,0s-.07,0-.09,0,0,0,0,0a.24.24,0,0,1-.13-.07s-.08-.17-.06-.07,0-.13,0,0,0-.11,0,0,0,.12,0,.18a2.26,2.26,0,0,0-.19.89,4,4,0,0,0,.13.91,2,2,0,0,0,.37.81,1.12,1.12,0,0,0,1.74.06,1.25,1.25,0,0,0,.25-1,2,2,0,0,0-.13-.48l-.12-.27s0,.1,0,0l0-.11a3.17,3.17,0,0,1-.12-.44s0-.05,0-.08,0,0,0,0v-.19c0-.12,0,0,0,0s0-.07,0-.1L48,36s0,.09,0,0L48,36l.06-.09c0-.07-.09.11,0,0a.63.63,0,0,0-.89-.88Z"/>
      <g class="cls-3">
        <path class="cls-4" d="M69.48,3.17a7,7,0,0,1,7.35,3.27c.38.71,1.46.08,1.08-.63C76.21,2.64,72.54,1.47,69.15,2a.63.63,0,0,0-.44.77.65.65,0,0,0,.77.43Z"/>
      </g>
      <g class="cls-3">
        <path class="cls-4" d="M47.72,69.7a7.61,7.61,0,0,0-3.55,4,8.43,8.43,0,0,0-.68,5.73.63.63,0,0,0,1.21-.33,7,7,0,0,1,.62-4.91,6.49,6.49,0,0,1,3-3.37.62.62,0,0,0,.22-.85.64.64,0,0,0-.85-.23Z"/>
      </g>
    </g>
    <g>
      <path class="cls-5" d="M8,94.05H9.62v15.67h9.15v1.49H8Z"/>
      <path class="cls-5" d="M23.18,103.72,17,94.05h1.78l5.23,8.3h.05l5.28-8.3h1.72l-6.24,9.72v7.44H23.18Z"/>
      <path class="cls-5" d="M30.93,105.64h1.61c.17,2.9,2.14,4.54,5.35,4.54,2.52,0,4.4-1.28,4.4-3.6s-1.61-3-5.28-3.75c-3.17-.62-5.4-1.58-5.4-4.58,0-2.74,2.3-4.54,5.73-4.54,3.82,0,5.74,2.06,6,5H41.83c-.29-2.43-2-3.68-4.46-3.68-2.62,0-4.2,1.25-4.2,3.15s1.58,2.66,4.65,3.24c3.34.65,6.1,1.46,6.1,5.06,0,3-2.45,5-6.05,5C33.36,111.52,31.13,109,30.93,105.64Z"/>
      <path class="cls-5" d="M46.29,94.05H57.48v1.41H47.9v6.1h8.16V103H47.9v8.26H46.29Z"/>
      <path class="cls-5" d="M60.19,94.05H71.85v1.41h-10v6.17H71V103H61.8v6.7H72.12v1.49H60.19Z"/>
      <path class="cls-5" d="M73.87,105.64h1.61c.17,2.9,2.13,4.54,5.35,4.54,2.52,0,4.39-1.28,4.39-3.6s-1.61-3-5.28-3.75c-3.17-.62-5.4-1.58-5.4-4.58,0-2.74,2.31-4.54,5.74-4.54,3.81,0,5.73,2.06,6,5H84.77c-.29-2.43-2-3.68-4.47-3.68-2.61,0-4.2,1.25-4.2,3.15s1.59,2.66,4.66,3.24c3.33.65,6.09,1.46,6.09,5.06,0,3-2.44,5-6,5C76.29,111.52,74.06,109,73.87,105.64Z"/>
      <path class="cls-5" d="M93,95.49H87.19V94.05h13.2v1.44H94.61v15.72H93Z"/>
      <path class="cls-5" d="M102.45,94.05h1.61v17.16h-1.61Z"/>
      <path class="cls-5" d="M105.88,94.05h1.68L112,106.72c.38,1.06.91,2.83.91,2.83h0s.55-1.85.93-2.9l4.47-12.6H120l-6.22,17.16H112Z"/>
      <path class="cls-5" d="M124.94,94.05h1.83l6.52,17.16h-1.72l-2-5.4h-7.46l-2,5.4h-1.63Zm4.15,10.44-2.35-6.41c-.36-1-.86-2.5-.86-2.5h0s-.46,1.47-.84,2.5l-2.4,6.41Z"/>
      <path class="cls-5" d="M135,94.05h1.61v15.67h9.14v1.49H135Z"/>
    </g>
  </g>
</svg>
