<svg id="Layer_1" data-name="Layer 1" xmlns="http://www.w3.org/2000/svg" width="155.23mm" height="154.99mm" viewBox="0 0 440.03 439.35">
  <defs>
    <style>
      .cls-1 {
        fill: none;
        stroke: #e930ef;
        stroke-miterlimit: 10;
        stroke-width: 8px;
      }

      .cls-2 {
        fill: #60e5ef;
      }
    </style>
  </defs>
  <path class="cls-1" d="M222.46,18.81s69.2.05,121.14,40.79S410.17,140.7,415.36,165s4.56,117.53-20.57,158.19C366,369.67,319.5,407.57,271,413.49s-113.67,1.86-155.6-27.33S41.7,324.38,27,263,25.64,163.64,46.75,122.9c22.54-43.52,36.72-59.42,83.34-82.49C173.75,18.81,187.82,19.33,222.46,18.81Z"/>
  <g>
    <path class="cls-2" d="M155.53,83.72h.54c.93.19,1.39.66,1.39,1.4v53.93h26.41c.77,0,1.15-.4,1.15-1.11,0-.93-.56-1.39-1.68-1.39H162.92a1.8,1.8,0,0,1-1.56-1.11v-.82c0-.87.65-1.39,2-1.56h19.44q4.14,0,5.29,3a3.24,3.24,0,0,1,.29,1.51v.7q0,3.69-4.48,4.31H155.53c-.93-.19-1.39-.66-1.39-1.4v-56C154.33,84.19,154.79,83.72,155.53,83.72Z"/>
    <path class="cls-2" d="M202.09,83.89q3.72,0,6.23,6.52,12,22.85,12.35,23.29,15.87-27.51,17.18-29.53a1.79,1.79,0,0,1,.86-.28h.54c.93.19,1.39.65,1.39,1.39v.53q0,.45-14.44,25.1-4.3,7.71-5,8a1.14,1.14,0,0,0-.7.17q-1.51,0-3.73-5.42L203.07,87.78a3.33,3.33,0,0,0-1.39-.57c-.85,0-1.45.64-1.81,1.93q.45,1.31,14.68,27.07a11.36,11.36,0,0,1,.46,2.62V141a1.78,1.78,0,0,1-1.11,1.52H213c-.88,0-1.38-.65-1.52-1.93V119q0-1.87-4-8.32L196.67,90.69a8.68,8.68,0,0,1-.12-1.27v-.94q0-2.83,3.9-4.59Z"/>
    <path class="cls-2" d="M268.78,82.9h2.42a24.15,24.15,0,0,1,12.26,3.32l.25,1v.12c0,1-.62,1.52-1.85,1.68a29.56,29.56,0,0,0-11.81-2.79q-12.63,0-16.37,8.86a16,16,0,0,0-.86,4.84v.58q0,7.62,8.12,10.21a99.07,99.07,0,0,0,10,.7q8.28,1.56,10.83,4.43a12.14,12.14,0,0,1,4.26,9.1v1.56q0,8.49-9.27,14.36a26.37,26.37,0,0,1-10.78,2.5h-2.59a29,29,0,0,1-12.79-3,5,5,0,0,1-1.73-3.2v-.94c0-2.19,1.19-3.62,3.57-4.31a5.89,5.89,0,0,1,1.27-.12q.49,0,6.57,1.8a23,23,0,0,0,4.38.42h.74q8.33,0,9.68-6.81c0-1.75.52-2.63,1.56-2.63h.29c1,0,1.52.6,1.68,1.81q0,7.54-8.37,10.37a18.51,18.51,0,0,1-5.12.7h-.58a31.52,31.52,0,0,1-10.83-2.21h-.28c-.77,0-1.15.46-1.15,1.39q0,2.25,11.69,3.45,13.69,0,17.8-9.56a22.68,22.68,0,0,0,.86-4.84q0-9-12.39-10.79-8.37-.24-11.11-1.11-9.84-3.81-9.85-13.24v-.45a16,16,0,0,1,7.55-14A23.42,23.42,0,0,1,268.78,82.9Z"/>
    <path class="cls-2" d="M125.1,184.52h30.43c.93.19,1.4.66,1.4,1.4v.57c0,1-.88,1.52-2.63,1.52H127.19v50.2c0,1.09.47,1.64,1.4,1.64h.82c1,0,1.51-.87,1.51-2.62V216.1q0-4.5,6.12-6.56c.9-.16,2.1-.3,3.6-.41q5.58,0,13.91,3.08a2,2,0,0,1,.7,1.51c-.25,1.13-.8,1.69-1.64,1.69q-8.49-2.79-13.09-2.79-5.33,0-6.11,3.48v20.84q0,5.09-3.77,6.27l-.82.13h-1.23q-4.07,0-4.89-5V185.92C123.9,185,124.36,184.52,125.1,184.52Z"/>
    <path class="cls-2" d="M166.53,184.52h30.59c.82,0,1.33.6,1.52,1.81,0,1-.83,1.54-2.5,1.68H168.62v51.84h26.7a.9.9,0,0,0,.94-.53v-1.27c0-.33-.5-.56-1.52-.7H173.91c-1-.14-1.56-.64-1.56-1.52v-20.3q0-4.68,7.1-6.28a16,16,0,0,1,3.07-.24h.94a48.73,48.73,0,0,1,13.09,2.21,2.28,2.28,0,0,1,.7,1.4c-.09,1.2-.69,1.8-1.81,1.8a52.55,52.55,0,0,0-11.81-2h-1.52c-4.18.36-6.27,1.38-6.27,3.08v18.33h18.37q4.11,0,5.25,3a3.24,3.24,0,0,1,.29,1.51v.7q0,3.69-4.43,4.31H166.53c-.93-.19-1.4-.66-1.4-1.4v-56C165.32,185,165.79,184.52,166.53,184.52Z"/>
    <path class="cls-2" d="M227.88,183.7h2.42A24.16,24.16,0,0,1,242.57,187l.24,1v.12c0,1-.61,1.52-1.84,1.68A29.59,29.59,0,0,0,229.16,187q-12.65,0-16.37,8.86a16,16,0,0,0-.86,4.84v.58q0,7.62,8.12,10.21,2.46.41,10,.7,8.28,1.56,10.83,4.43a12.14,12.14,0,0,1,4.26,9.1v1.56q0,8.49-9.27,14.36a26.41,26.41,0,0,1-10.79,2.5h-2.58a29,29,0,0,1-12.8-3,5.06,5.06,0,0,1-1.72-3.2V237c0-2.19,1.19-3.62,3.57-4.31a5.83,5.83,0,0,1,1.27-.12q.5,0,6.56,1.8a23.14,23.14,0,0,0,4.39.41h.74q8.33,0,9.68-6.8c0-1.75.52-2.63,1.56-2.63H236c1,0,1.51.6,1.68,1.81q0,7.55-8.37,10.37a18.53,18.53,0,0,1-5.13.7h-.57A31.52,31.52,0,0,1,212.79,236h-.29c-.76,0-1.14.46-1.14,1.39q0,2.25,11.68,3.45,13.71,0,17.81-9.56a22.68,22.68,0,0,0,.86-4.84q0-9-12.39-10.79-8.37-.24-11.12-1.11-9.84-3.81-9.84-13.24v-.45a16,16,0,0,1,7.55-13.95A23.38,23.38,0,0,1,227.88,183.7Z"/>
    <path class="cls-2" d="M257.5,184.52h36q4.18.94,4.18,4.06V190q0,2.53-3.48,3.89A5.71,5.71,0,0,1,293,194H280.75v47.82c-.19,1-.69,1.52-1.51,1.52h-.41c-.85,0-1.37-.6-1.56-1.81V192.48a1.74,1.74,0,0,1,2-2H293c.71,0,1.13-.41,1.27-1.23-.06-.85-.42-1.27-1.11-1.27H257.79c-.69,0-1.06.42-1.11,1.27q.17,1.23,1.23,1.23h13.94c1,0,1.52.6,1.69,1.8v.17c0,.76-.52,1.27-1.56,1.52H257.91c-2.22,0-3.75-1.21-4.6-3.61v-1.81Q253.31,185.46,257.5,184.52Z"/>
    <path class="cls-2" d="M307.25,184.36h.57c.93.19,1.4.65,1.4,1.39v51.31c0,1.86.5,2.79,1.52,2.79h.82q1.56,0,1.56-2.79V185.75c.19-.93.65-1.39,1.39-1.39H315c.93.19,1.4.65,1.4,1.39v52.58q-.82,5-4.88,5h-.82q-4.07,0-4.88-5V185.75C306.05,184.82,306.51,184.36,307.25,184.36Z"/>
    <path class="cls-2" d="M151.74,285.16h1.15q2.87,0,4.43,3.89,13.81,45.29,13.82,45.9v.25c-.19,1-.7,1.55-1.52,1.55h-.28q-1.56,0-2.51-4.18-12.3-41.34-13.24-43.52l-1.4-.53c-1.39.3-2.09,1-2.09,2.09q14.9,45.86,16,48.52a3.81,3.81,0,0,0,2.62,1.52h1q2.91,0,4.3-6.15l17.6-48.77a1.62,1.62,0,0,1,1.11-.57h.53c.93.19,1.39.65,1.39,1.39V287q0,.41-15.34,43.35-3.76,11.16-4.59,11.16a6,6,0,0,1-4.88,2.67h-1.23q-4.63,0-6.85-6.57-15.06-45.85-15-46.43v-1.23c0-1.88,1.3-3.43,3.89-4.63A5.1,5.1,0,0,1,151.74,285.16Z"/>
    <path class="cls-2" d="M227,285.65h1.36q5.77,0,8.16,10.09Q249.07,332.16,251,338.6v1.52q0,3.31-4.68,4h-1q-4.4,0-6.07-7.75-2.72-8.17-3.73-8.17-3-2.87-8.45-2.87a49.38,49.38,0,0,0-9.68,1.52c-.77,0-1.28-.56-1.52-1.68v-.13c0-1.25,1.79-2.09,5.37-2.5a19.34,19.34,0,0,1,4.84-.53h2.09a13.07,13.07,0,0,1,11.61,6.07c.41.77,1.79,4.63,4.14,11.61.47.65.93,1,1.4,1h1.11c.73,0,1.14-.42,1.23-1.27q-15.06-45.12-16.74-48.81a3.56,3.56,0,0,0-3-1.52h-.82q-3.17,0-4.72,6.53l-16.45,48a1.65,1.65,0,0,1-1.11.54h-.53c-.93-.19-1.39-.66-1.39-1.4v-.41q.81-2.82,17-50.32Q222.33,285.65,227,285.65Z"/>
    <path class="cls-2" d="M260.6,285.32h.53c.93.19,1.39.66,1.39,1.4v53.93h26.42c.76,0,1.15-.4,1.15-1.11,0-.93-.56-1.39-1.69-1.39H268a1.8,1.8,0,0,1-1.56-1.11v-.82c0-.87.66-1.39,2-1.56h19.44c2.76,0,4.53,1,5.29,3a3.24,3.24,0,0,1,.29,1.51v.7q0,3.69-4.47,4.31H260.6c-.93-.19-1.4-.66-1.4-1.4v-56C259.39,285.79,259.86,285.32,260.6,285.32Z"/>
  </g>
</svg>
